<?xml version="1.0" encoding="UTF-8"?>
<svg width="238px" height="69px" viewBox="0 0 238 69" version="1.1" xmlns="http://www.w3.org/2000/svg" xmlns:xlink="http://www.w3.org/1999/xlink">
    <title>2020_01_26_Sigma_Logo_FullColor_White_NT (1)</title>
    <g id="Page-1" stroke="none" stroke-width="1" fill="none" fill-rule="evenodd">
        <g id="2020_01_26_Sigma_Logo_FullColor_White_NT-(1)" fill-rule="nonzero">
            <polygon id="Path" fill="#2FB2AF" points="58.0882353 67.304902 20.7181373 51.0789216 44.8828431 51.0789216"></polygon>
            <polygon id="Path" fill="#2FB2AF" points="34.8529412 34.5431373 61.3411765 66.995098 50.8078431 17.5039216"></polygon>
            <polygon id="Path" fill="#2FB2AF" points="0 0 32.9553922 32.6455882 48.9102941 15.6063725"></polygon>
            <polygon id="Path" fill="#2FB2AF" points="63.4323529 0.348529412 51.0789216 13.5539216 39.1901961 9.72009804"></polygon>
            <polygon id="Path" fill="#2FB2AF" points="66.0656863 1.47156863 59.0563725 8.59705882 78.1480392 8.90686275"></polygon>
            <polygon id="Path" fill="#FFFFFF" points="105.139706 22.4220588 112.691176 22.4220588 112.691176 52.8990196 105.139706 52.8990196"></polygon>
            <path d="M149.441667,22.4220588 L149.441667,48.6004902 C149.441667,62.3093137 142.935784,68.2346331 132.75098,68.2346331 C126.709804,68.2730392 121.210784,64.7877451 118.654902,59.2887255 L124.773529,56.4230392 C126.283824,59.4436275 129.381863,61.3411765 132.75098,61.379902 C138.482353,61.379902 142.045098,57.9720588 142.045098,49.297549 L142.045098,48.8328431 C139.953922,51.9696078 135.810294,53.5186275 132.170098,53.5186275 C124.347549,53.5186275 117.531863,47.322549 117.531863,37.602451 C117.531863,27.804902 124.270098,21.725 132.131373,21.725 C135.965196,21.725 139.953922,23.2352941 142.083824,26.3720588 L142.083824,22.4220588 L149.441667,22.4220588 Z M141.928922,37.5637255 C142.006373,32.8004902 138.172549,28.8892157 133.409314,28.8117647 L133.331863,28.8117647 C128.723529,28.8117647 125.005882,32.4519608 125.005882,37.5637255 C125.005882,42.6754902 128.762255,46.4318627 133.331863,46.4318627 C137.862745,46.4318627 141.928922,42.9078431 141.928922,37.5637255 Z" id="Shape" fill="#FFFFFF"></path>
            <path d="M204.044608,35.7823529 L204.044608,52.8990196 L196.531863,52.8990196 L196.531863,36.3632353 C196.531863,31.4838235 193.97598,29.0441176 190.451961,29.0441176 C186.07598,29.0441176 183.326471,32.2970588 183.675,37.7960784 L183.597549,37.525 L183.597549,52.8602941 L176.046078,52.8602941 L176.046078,36.3632353 C176.046078,31.4838235 173.490196,29.0441176 170.237255,29.0441176 C166.713235,29.0441176 163.189216,31.0191176 163.189216,36.7892157 L163.189216,52.8602941 L155.637745,52.8602941 L155.637745,22.4220588 L163.189216,22.4220588 L163.189216,27.65 C164.312255,23.8161765 168.455882,21.7637255 172.25098,21.7637255 C176.704412,21.7637255 180.344608,23.854902 182.12598,27.7661765 C184.526961,22.9254902 189.290196,21.7637255 192.388235,21.7637255 C199.978431,21.7637255 204.044608,26.9142157 204.044608,35.7823529 Z" id="Path" fill="#FFFFFF"></path>
            <path d="M74.7789216,43.45 L82.2916667,43.45 C82.2916667,45.5411765 84.2279412,47.477451 87.5970588,47.477451 C90.772549,47.477451 92.8637255,46.1220588 92.8637255,44.1470588 C92.8637255,42.4431373 91.4696078,41.6686275 89.0686275,41.1264706 L84.770098,40.0808824 C77.5284314,38.2607843 75.6696078,34.5818627 75.6696078,30.7480392 C75.6696078,25.9848039 80.6264706,21.802451 87.6745098,21.802451 C93.4058824,21.802451 99.9117647,24.4745098 99.8343137,31.3289216 L92.1666667,31.3289216 C92.1666667,29.1602941 90.1529412,27.8823529 87.9068627,27.8823529 C85.4284314,27.8823529 83.6857843,29.1990196 83.6857843,31.0965686 C83.6857843,32.6455882 85.2735294,33.575 87.1323529,33.9622549 L92.3215686,35.2789216 C99.5632353,37.0602941 100.879902,41.3588235 100.879902,44.1470588 C100.879902,50.3431373 94.3352941,53.5960784 87.7519608,53.5960784 C81.3235294,53.5960784 74.895098,49.9558824 74.7789216,43.45 Z" id="Path" fill="#FFFFFF"></path>
            <ellipse id="Oval" fill="#FFFFFF" cx="108.896078" cy="15.0254902" rx="4.56960784" ry="4.7245098"></ellipse>
            <path d="M237,34.6980392 L237,52.8990196 L229.564706,52.8990196 L229.564706,48.8715686 C227.512255,51.6985294 223.175,53.5573529 219.108824,53.5573529 C212.757843,53.5573529 208.226961,49.8397059 208.226961,44.1083333 C208.226961,37.9897059 213.493627,34.5818627 220.231863,34.5818627 C223.639706,34.5818627 227.202451,35.4338235 229.564706,36.7504902 L229.564706,34.9303922 C229.564706,31.0965686 226.970098,28.3857843 222.671569,28.3857843 C218.992647,28.3857843 215.584804,29.7411765 214.035784,31.6387255 L209.892157,27.3014706 C212.370588,23.9710784 217.521078,21.7637255 223.136275,21.7637255 C231.152451,21.7637255 237,26.3333333 237,34.6980392 Z M229.564706,43.0240196 L229.564706,41.7848039 C227.589706,40.5455882 224.452941,39.7710784 221.548529,39.7710784 C217.366176,39.7710784 215.352451,41.5911765 215.352451,43.7598039 C215.352451,45.9284314 217.327451,47.3612745 220.580392,47.3612745 C223.833333,47.3612745 227.744608,45.6960784 229.564706,43.0240196 Z" id="Shape" fill="#FFFFFF"></path>
        </g>
    </g>
</svg>